<svg xmlns="http://www.w3.org/2000/svg" width="632.989" height="471.96" viewBox="0 0 632.989 471.96">
  <g id="logo" transform="translate(-105.357 -61.423)">
    <g id="Group_20367" data-name="Group 20367">
      <path id="Path_68832" data-name="Path 68832" d="M139.047,506.64a9.247,9.247,0,0,1,1.939,2.5,11.938,11.938,0,0,1,1.106,3.028,15.662,15.662,0,0,1,.357,3.386,20.713,20.713,0,0,1-.306,3.538,20.44,20.44,0,0,1-1.548,4.917,19.282,19.282,0,0,1-2.909,4.61,15.293,15.293,0,0,1-4.151,3.419,10.545,10.545,0,0,1-5.273,1.344H106.385l8.3-47.02h20.549a8.379,8.379,0,0,1,4.372,1.106,7.5,7.5,0,0,1,2.807,2.841,9.518,9.518,0,0,1,1.123,3.232,20.417,20.417,0,0,1,.17,2.279,14.076,14.076,0,0,1-.2,2.382,14.432,14.432,0,0,1-1.531,4.423A19.634,19.634,0,0,1,139.047,506.64ZM126.39,527.123a4.489,4.489,0,0,0,2.6-.784,7.5,7.5,0,0,0,1.957-1.973,11.982,11.982,0,0,0,1.343-2.6,16.326,16.326,0,0,0,.766-2.671,12.908,12.908,0,0,0,.2-2.246,17.214,17.214,0,0,0-.136-1.853,6.22,6.22,0,0,0-.816-2.366,5,5,0,0,0-1.7-1.82,5.815,5.815,0,0,0-2.824-.7h-8.3l-3.062,17.012Zm-3.844-34.432-1.94,11.159h8.268a4.847,4.847,0,0,0,2.092-.509,5.913,5.913,0,0,0,1.651-1.243,6.563,6.563,0,0,0,1.173-1.768,8.881,8.881,0,0,0,.664-2.127,6.472,6.472,0,0,0,.136-1.327c0-.181-.017-.481-.051-.9a4.636,4.636,0,0,0-.408-1.446,3.215,3.215,0,0,0-1.055-1.326,3,3,0,0,0-1.82-.511Z" fill="#651f80"/>
      <path id="Path_68833" data-name="Path 68833" d="M149.356,527.462a20.07,20.07,0,0,1-.477-4.559q0-.237.034-1.768a28.8,28.8,0,0,1,.511-4.186,39.071,39.071,0,0,1,.9-3.827,26.615,26.615,0,0,1,1.394-3.776,19.513,19.513,0,0,1,2.007-3.42,13.623,13.623,0,0,1,2.74-2.79,8.543,8.543,0,0,1,2.449-1.327,8.4,8.4,0,0,1,2.79-.476h14.153a8.193,8.193,0,0,1,3.658,1.021,6.892,6.892,0,0,1,2.4,2.28,7.136,7.136,0,0,1,1.089,2.7,14.449,14.449,0,0,1,.2,2.127,12.437,12.437,0,0,1-.17,2.041,15.1,15.1,0,0,1-1.1,3.4,12.143,12.143,0,0,1-2.195,3.2,9.775,9.775,0,0,1-3.266,2.432,9.646,9.646,0,0,1-4.185.935H158.134q0,.715.034,1.566a10.019,10.019,0,0,0,.2,1.667,5.166,5.166,0,0,0,.527,1.462,2.2,2.2,0,0,0,1,.954H176.54l-.987,6.26H156.058a5.792,5.792,0,0,1-2.484-.511,6.491,6.491,0,0,1-1.9-1.344,8.434,8.434,0,0,1-1.4-1.905A12.115,12.115,0,0,1,149.356,527.462ZM170.62,515.18a3.24,3.24,0,0,0,1.174-.272,5.759,5.759,0,0,0,.9-.613,5.522,5.522,0,0,0,.732-1.19,6.82,6.82,0,0,0,.527-1.6,5.894,5.894,0,0,0,.1-1.089,7.386,7.386,0,0,0-.068-.85,2.68,2.68,0,0,0-.374-1.055,2.566,2.566,0,0,0-.612-.7,1.869,1.869,0,0,0-1.055-.222h-8.574a1.047,1.047,0,0,0-.391.052c-.08.033-.233.107-.459.22a5.674,5.674,0,0,0-1.43,1.5,11.4,11.4,0,0,0-1.037,1.94,16.086,16.086,0,0,0-.7,2.041c-.182.681-.328,1.293-.442,1.837Z" fill="#651f80"/>
      <path id="Path_68834" data-name="Path 68834" d="M206.514,483.914c0,.022-.051.289-.154.8s-.221,1.174-.357,1.991-.3,1.746-.493,2.79-.38,2.109-.561,3.2-.369,2.155-.562,3.2-.357,1.974-.493,2.79-.255,1.481-.358,1.99-.153.778-.153.8h5.274l-1.089,6.261h-5.307q-.545,3.129-1.174,6.736t-1.225,7.093q-.6,3.489-1.122,6.584t-.868,5.24h-9.05q.339-2.144.85-5.24t1.123-6.584q.613-3.486,1.242-7.093t1.174-6.736h-5.376l1.123-6.261H194.3a5.119,5.119,0,0,0,.171-.8q.135-.764.357-1.99t.493-2.79q.271-1.564.561-3.2t.579-3.2q.288-1.566.493-2.79t.357-1.991c.1-.51.154-.777.154-.8Z" fill="#651f80"/>
      <path id="Path_68835" data-name="Path 68835" d="M267.278,501.333l-19.767,32.05h-8.233l-3.709-12.623-7.927,12.623h-8.234l-8.574-32.05h9.7l4.457,23.272,8.437-11.228-3.4-12.044H236.9l7.961,23.272,12.69-23.272Z" fill="#651f80"/>
      <path id="Path_68836" data-name="Path 68836" d="M268.605,527.462a20.071,20.071,0,0,1-.476-4.559q0-.237.034-1.768a28.631,28.631,0,0,1,.51-4.186,39.066,39.066,0,0,1,.9-3.827,26.617,26.617,0,0,1,1.395-3.776,19.389,19.389,0,0,1,2.007-3.42,13.619,13.619,0,0,1,2.739-2.79,8.542,8.542,0,0,1,2.449-1.327,8.4,8.4,0,0,1,2.79-.476h14.154a8.189,8.189,0,0,1,3.657,1.021,6.9,6.9,0,0,1,2.4,2.28,7.15,7.15,0,0,1,1.088,2.7,14.47,14.47,0,0,1,.205,2.127,12.438,12.438,0,0,1-.171,2.041,15.1,15.1,0,0,1-1.1,3.4,12.143,12.143,0,0,1-2.2,3.2,9.775,9.775,0,0,1-3.266,2.432,9.646,9.646,0,0,1-4.185.935H277.383q0,.715.034,1.566a10.018,10.018,0,0,0,.2,1.667,5.137,5.137,0,0,0,.528,1.462,2.2,2.2,0,0,0,1,.954h16.637l-.986,6.26H275.308a5.786,5.786,0,0,1-2.484-.511,6.491,6.491,0,0,1-1.9-1.344,8.373,8.373,0,0,1-1.4-1.905A12.121,12.121,0,0,1,268.605,527.462Zm21.264-12.282a3.24,3.24,0,0,0,1.174-.272,5.758,5.758,0,0,0,.9-.613,5.483,5.483,0,0,0,.732-1.19,6.82,6.82,0,0,0,.527-1.6,5.9,5.9,0,0,0,.1-1.089,7.383,7.383,0,0,0-.068-.85,2.68,2.68,0,0,0-.374-1.055,2.567,2.567,0,0,0-.612-.7,1.867,1.867,0,0,0-1.055-.222h-8.574a1.047,1.047,0,0,0-.391.052c-.08.033-.233.107-.459.22a5.656,5.656,0,0,0-1.429,1.5,11.477,11.477,0,0,0-1.038,1.94,15.924,15.924,0,0,0-.7,2.041q-.273,1.021-.443,1.837Z" fill="#651f80"/>
      <path id="Path_68837" data-name="Path 68837" d="M307.493,527.462a20.071,20.071,0,0,1-.476-4.559q0-.237.034-1.768a28.631,28.631,0,0,1,.51-4.186q.34-1.87.9-3.827a26.741,26.741,0,0,1,1.395-3.776,19.451,19.451,0,0,1,2.007-3.42,13.619,13.619,0,0,1,2.739-2.79,8.555,8.555,0,0,1,2.449-1.327,8.4,8.4,0,0,1,2.79-.476H334a8.185,8.185,0,0,1,3.657,1.021,6.9,6.9,0,0,1,2.4,2.28,7.153,7.153,0,0,1,1.089,2.7,14.587,14.587,0,0,1,.2,2.127,12.437,12.437,0,0,1-.17,2.041,15.106,15.106,0,0,1-1.106,3.4,12.162,12.162,0,0,1-2.194,3.2,9.789,9.789,0,0,1-3.267,2.432,9.642,9.642,0,0,1-4.184.935H316.271q0,.715.034,1.566a10.018,10.018,0,0,0,.2,1.667,5.168,5.168,0,0,0,.528,1.462,2.2,2.2,0,0,0,1,.954h16.637l-.986,6.26H314.2a5.786,5.786,0,0,1-2.484-.511,6.491,6.491,0,0,1-1.9-1.344,8.4,8.4,0,0,1-1.4-1.905A12.2,12.2,0,0,1,307.493,527.462Zm21.264-12.282a3.24,3.24,0,0,0,1.174-.272,5.713,5.713,0,0,0,.9-.613,5.483,5.483,0,0,0,.732-1.19,6.822,6.822,0,0,0,.528-1.6,5.894,5.894,0,0,0,.1-1.089,7.345,7.345,0,0,0-.067-.85,2.7,2.7,0,0,0-.375-1.055,2.567,2.567,0,0,0-.612-.7,1.865,1.865,0,0,0-1.055-.222H321.51a1.047,1.047,0,0,0-.391.052c-.079.033-.232.107-.459.22a5.656,5.656,0,0,0-1.429,1.5,11.4,11.4,0,0,0-1.037,1.94,15.777,15.777,0,0,0-.7,2.041q-.273,1.021-.443,1.837Z" fill="#651f80"/>
      <path id="Path_68838" data-name="Path 68838" d="M366.386,533.383l2.722-16.025q.17-1.089.323-2.364a20.749,20.749,0,0,0,.153-2.467q0-.137-.017-.851a8.944,8.944,0,0,0-.306-1.871,3.93,3.93,0,0,0-1-1.872.917.917,0,0,0-.323-.238,1.094,1.094,0,0,0-.289-.033H357.2l-4.457,25.721h-9.084l5.58-32.05h22.318a5.787,5.787,0,0,1,2.552.544,7.216,7.216,0,0,1,1.974,1.4,8.6,8.6,0,0,1,1.82,3.044,13,13,0,0,1,.714,3.1q.12,1.377.119,2.3,0,.987-.136,2.45t-.442,3.2l-2.722,16.025Z" fill="#651f80"/>
      <path id="Path_68839" data-name="Path 68839" d="M418.271,511.914l-3.709,21.469h-9.05l3.675-21.6-11.841-25.415h10.31l7.69,16.433,13.506-16.433H439.16Z" fill="#003a86"/>
      <path id="Path_68840" data-name="Path 68840" d="M468.284,503.273a8.68,8.68,0,0,1,1.683,2.891,14.2,14.2,0,0,1,.767,3.182,24.816,24.816,0,0,1,.17,2.738c0,.476-.03,1.163-.085,2.058a28.469,28.469,0,0,1-.426,3.216,37.154,37.154,0,0,1-1.412,5.359,27.277,27.277,0,0,1-2.228,4.95,19.713,19.713,0,0,1-1.616,2.126,12.566,12.566,0,0,1-1.973,1.837,9.6,9.6,0,0,1-2.314,1.276,7.2,7.2,0,0,1-2.6.477H444.535a6.052,6.052,0,0,1-2.381-.46,6.838,6.838,0,0,1-1.939-1.225,6.911,6.911,0,0,1-1.428-1.8,9.26,9.26,0,0,1-.885-2.228,17.591,17.591,0,0,1-.579-4.662q0-.135.017-1.581a26.258,26.258,0,0,1,.493-4.066q.307-1.734.851-3.675a27.2,27.2,0,0,1,1.4-3.827,21.336,21.336,0,0,1,2.058-3.59,14.11,14.11,0,0,1,2.875-2.993,8.165,8.165,0,0,1,2.365-1.4,7.6,7.6,0,0,1,2.807-.544h13.574a5.9,5.9,0,0,1,2.569.544A6.654,6.654,0,0,1,468.284,503.273Zm-11.908,23.85a1.906,1.906,0,0,0,1.241-.63,6.617,6.617,0,0,0,1.106-1.531,18.2,18.2,0,0,0,.952-2.059q.443-1.122.784-2.194t.544-1.973q.2-.9.306-1.378a22.659,22.659,0,0,0,.391-3.216c.011-.714.017-1.116.017-1.208a10.793,10.793,0,0,0-.408-3.163c-.046-.158-.1-.352-.17-.579a3.776,3.776,0,0,0-.272-.663,2.1,2.1,0,0,0-.425-.561,1.2,1.2,0,0,0-.6-.306h-7.995a1.181,1.181,0,0,0-.629.2,3.376,3.376,0,0,0-.631.527,7.1,7.1,0,0,0-.577.7c-.183.249-.341.476-.476.68a24.961,24.961,0,0,0-1.514,3.436,24.166,24.166,0,0,0-1.106,4.151q-.1.51-.2,1.4t-.136,1.718q-.035.834-.034,1.446,0,.442.017,1.191a9.457,9.457,0,0,0,.2,1.667,4.689,4.689,0,0,0,.579,1.548,1.716,1.716,0,0,0,1.037.8Z" fill="#003a86"/>
      <path id="Path_68841" data-name="Path 68841" d="M488.6,501.333l-2.858,15.889q-.1.51-.205,1.429T485.4,520.4q-.035.834-.034,1.378,0,.578.034,1.429a11.57,11.57,0,0,0,.221,1.786,4.513,4.513,0,0,0,.562,1.531,1.151,1.151,0,0,0,1.02.6h10.445l4.594-25.79h9.049l-5.579,32.05H483.425a5.876,5.876,0,0,1-3.2-.817,6.668,6.668,0,0,1-2.127-2.161,10.308,10.308,0,0,1-1.242-3.061,18.5,18.5,0,0,1-.493-3.113q-.085-1.4-.085-2.314,0-.816.068-2.075a22.241,22.241,0,0,1,.306-2.62l2.859-15.889Z" fill="#003a86"/>
      <path id="Path_68842" data-name="Path 68842" d="M530.784,510.452c-.046-.2-.1-.46-.169-.767a4.892,4.892,0,0,0-.29-.884,2.827,2.827,0,0,0-.477-.748,1.187,1.187,0,0,0-.731-.391h-3.538l-4.457,25.721h-9.084l5.58-32.05h15.411a5.6,5.6,0,0,1,3.063.8,6.836,6.836,0,0,1,2.093,2.092,10.754,10.754,0,0,1,1.292,2.926,21.83,21.83,0,0,1,.663,3.3Z" fill="#003a86"/>
      <path id="Path_68843" data-name="Path 68843" d="M591.787,486.363l-8.234,47.02h-9.118l4.049-23.544H564.33l-4.049,23.544h-9.117l8.233-47.02h9.118l-3.062,17.113h14.154l3.061-17.113Z" fill="#003a86"/>
      <path id="Path_68844" data-name="Path 68844" d="M593.181,529.913a7.031,7.031,0,0,1-.953-2.774q-.1-1.24-.1-1.82a13.217,13.217,0,0,1,.238-2.517,14.348,14.348,0,0,1,1.072-3.386,11.542,11.542,0,0,1,2.194-3.181,9.217,9.217,0,0,1,1.5-1.378,10.314,10.314,0,0,1,3.76-1.735,8.633,8.633,0,0,1,1.921-.221h14.426c.022-.227.034-.454.034-.681s-.012-.515-.034-.867a9.485,9.485,0,0,0-.169-1.208,7.374,7.374,0,0,0-.375-1.276,2.96,2.96,0,0,0-.647-1,1.04,1.04,0,0,0-.306-.238,1.054,1.054,0,0,0-.306-.034h-16.2l1.123-6.26h18.95a5.924,5.924,0,0,1,2.5.494,6.266,6.266,0,0,1,1.872,1.309,7.763,7.763,0,0,1,1.344,1.872,15.441,15.441,0,0,1,.918,2.177,20.722,20.722,0,0,1,.511,4.729q0,.069-.018,1.429a26.868,26.868,0,0,1-.493,4.015,36.8,36.8,0,0,1-.868,3.845,28.347,28.347,0,0,1-1.411,3.912,20.568,20.568,0,0,1-2.042,3.573,12.2,12.2,0,0,1-2.79,2.823,10.637,10.637,0,0,1-2.382,1.345,7.149,7.149,0,0,1-2.722.527H599.475a7.33,7.33,0,0,1-3.827-1A6.432,6.432,0,0,1,593.181,529.913Zm11.568-10.752a2.761,2.761,0,0,0-1.191.2,3.946,3.946,0,0,0-.885.647,6.765,6.765,0,0,0-.731,1.208,6.467,6.467,0,0,0-.527,1.582,5.894,5.894,0,0,0-.1,1.088,7.816,7.816,0,0,0,.068.868,2.445,2.445,0,0,0,.375,1.037,2.17,2.17,0,0,0,.63.681,2.006,2.006,0,0,0,1.037.2H612a1.646,1.646,0,0,0,.357-.034,1.991,1.991,0,0,0,.494-.239,5.747,5.747,0,0,0,1.429-1.479,10.908,10.908,0,0,0,1.037-1.923,16.4,16.4,0,0,0,.7-2.041c.181-.681.328-1.28.441-1.8Z" fill="#003a86"/>
      <path id="Path_68845" data-name="Path 68845" d="M652.211,533.383l2.721-16.025q.169-1.089.323-2.364a20.749,20.749,0,0,0,.153-2.467q0-.137-.016-.851a9.1,9.1,0,0,0-.307-1.871,3.937,3.937,0,0,0-1-1.872.936.936,0,0,0-.324-.238,1.1,1.1,0,0,0-.289-.033H643.024l-4.456,25.721h-9.084l5.579-32.05h22.319a5.79,5.79,0,0,1,2.552.544,7.226,7.226,0,0,1,1.973,1.4,8.581,8.581,0,0,1,1.82,3.044,13.09,13.09,0,0,1,.714,3.1q.119,1.377.12,2.3,0,.987-.137,2.45t-.442,3.2l-2.722,16.025Z" fill="#003a86"/>
      <path id="Path_68846" data-name="Path 68846" d="M698.686,533.383H676.367a6.04,6.04,0,0,1-3.13-.766,6.484,6.484,0,0,1-2.128-2.024,9.8,9.8,0,0,1-1.275-2.926,16.841,16.841,0,0,1-.545-3.028q-.1-1.36-.1-2.314,0-.816.084-2.127a26.1,26.1,0,0,1,.358-2.84,36.047,36.047,0,0,1,1.361-5.257,24.555,24.555,0,0,1,2.246-4.848,21.034,21.034,0,0,1,1.667-2.177,13.378,13.378,0,0,1,1.99-1.871,9.58,9.58,0,0,1,2.331-1.31,7.194,7.194,0,0,1,2.653-.494h13.235l3.164-17.487h9.05Zm-8.03-6.635,3.436-19.086H683.614a1.81,1.81,0,0,0-1.276.577,6.918,6.918,0,0,0-1.123,1.481,13.586,13.586,0,0,0-.953,2.007q-.425,1.105-.749,2.194t-.544,2.008q-.222.918-.29,1.429-.068.477-.2,1.326t-.221,1.77q-.086.918-.085,1.8c0,.113.005.374.017.782a7.8,7.8,0,0,0,.221,1.5,4.278,4.278,0,0,0,.629,1.5,1.638,1.638,0,0,0,1.174.715Z" fill="#003a86"/>
      <path id="Path_68847" data-name="Path 68847" d="M707.089,533.383l.987-6.26h17.01a1.779,1.779,0,0,0,1.106-.375,3.5,3.5,0,0,0,.834-.9,6.019,6.019,0,0,0,.85-2.229,4.173,4.173,0,0,0,.1-.953c0-.045-.006-.18-.018-.407a3.164,3.164,0,0,0-.186-.834,2.026,2.026,0,0,0-.511-.817,1.281,1.281,0,0,0-.918-.324H715.458a6.341,6.341,0,0,1-3.742-1.122,5.235,5.235,0,0,1-1.4-1.582,7.69,7.69,0,0,1-.766-1.923,8.526,8.526,0,0,1-.255-2.075q0-.067.017-.663a11.588,11.588,0,0,1,.221-1.684,14.523,14.523,0,0,1,1.413-4.27,12.9,12.9,0,0,1,2.772-3.623,9.319,9.319,0,0,1,2.484-1.481,6.987,6.987,0,0,1,2.585-.527h19.053l-1.123,6.26H720.494a1.463,1.463,0,0,0-.647.6,6.936,6.936,0,0,0-.646,1.208,11.452,11.452,0,0,0-.527,1.531,6.184,6.184,0,0,0-.238,1.191c-.013.249-.018.386-.018.408a2.5,2.5,0,0,0,.2,1.054.751.751,0,0,0,.749.443h10.853a6.872,6.872,0,0,1,2.654.493,6.284,6.284,0,0,1,2.059,1.361,6.879,6.879,0,0,1,1.394,2.024,7.843,7.843,0,0,1,.664,2.449,6.488,6.488,0,0,1,.136,1.328c0,.091-.005.3-.018.629a8.124,8.124,0,0,1-.186,1.31,13.35,13.35,0,0,1-2.076,5.137,12.229,12.229,0,0,1-1.8,2.11,10.343,10.343,0,0,1-2.245,1.6,10.616,10.616,0,0,1-1.9.68,7.965,7.965,0,0,1-1.94.239Z" fill="#003a86"/>
    </g>
    <g id="Group_20368" data-name="Group 20368">
      <path id="Path_68848" data-name="Path 68848" d="M182.787,346.365a6.533,6.533,0,0,1,1.373,1.772,8.435,8.435,0,0,1,.784,2.143,11.128,11.128,0,0,1,.253,2.4,14.717,14.717,0,0,1-.217,2.505,14.528,14.528,0,0,1-1.1,3.481,13.617,13.617,0,0,1-2.059,3.264,10.828,10.828,0,0,1-2.939,2.422,7.482,7.482,0,0,1-3.734.951H159.66l5.878-33.293h14.551a5.933,5.933,0,0,1,3.1.783,5.306,5.306,0,0,1,1.987,2.011,6.739,6.739,0,0,1,.795,2.289,14.491,14.491,0,0,1,.121,1.614,10.008,10.008,0,0,1-.145,1.687,10.223,10.223,0,0,1-1.084,3.131A13.9,13.9,0,0,1,182.787,346.365Zm-8.961,14.5a3.172,3.172,0,0,0,1.842-.554,5.354,5.354,0,0,0,1.386-1.4,8.56,8.56,0,0,0,.951-1.843,11.562,11.562,0,0,0,.542-1.891,9.084,9.084,0,0,0,.145-1.59,12.364,12.364,0,0,0-.1-1.313,4.416,4.416,0,0,0-.578-1.675,3.56,3.56,0,0,0-1.205-1.289,4.121,4.121,0,0,0-2-.493h-5.879l-2.168,12.045Zm-2.722-24.38-1.374,7.9h5.854a3.462,3.462,0,0,0,1.482-.362,4.2,4.2,0,0,0,1.169-.88,4.652,4.652,0,0,0,.831-1.253,6.269,6.269,0,0,0,.469-1.5,4.577,4.577,0,0,0,.1-.94q0-.193-.036-.639a3.247,3.247,0,0,0-.289-1.024,2.271,2.271,0,0,0-.746-.939,2.134,2.134,0,0,0-1.289-.362Z" fill="#003a86"/>
      <path id="Path_68849" data-name="Path 68849" d="M187.126,361.109a14.279,14.279,0,0,1-.337-3.228q0-.168.025-1.253a20.2,20.2,0,0,1,.361-2.963q.24-1.324.638-2.71a19.07,19.07,0,0,1,.988-2.674,13.86,13.86,0,0,1,1.421-2.422,9.626,9.626,0,0,1,1.939-1.974,6.046,6.046,0,0,1,1.735-.941,5.958,5.958,0,0,1,1.975-.337h10.022a5.817,5.817,0,0,1,2.59.723,4.9,4.9,0,0,1,1.7,1.614,5.056,5.056,0,0,1,.771,1.915,10.284,10.284,0,0,1,.145,1.506,8.819,8.819,0,0,1-.121,1.446,10.672,10.672,0,0,1-.782,2.409,8.6,8.6,0,0,1-1.555,2.264,6.92,6.92,0,0,1-2.313,1.723,6.833,6.833,0,0,1-2.962.662H193.342q0,.506.024,1.109a7.2,7.2,0,0,0,.144,1.179,3.673,3.673,0,0,0,.374,1.036,1.552,1.552,0,0,0,.711.675h11.78l-.7,4.433h-13.8a4.074,4.074,0,0,1-1.758-.362,4.592,4.592,0,0,1-1.349-.951,5.931,5.931,0,0,1-.988-1.349A8.622,8.622,0,0,1,187.126,361.109Zm15.057-8.7a2.286,2.286,0,0,0,.831-.192,4.167,4.167,0,0,0,.639-.434,3.939,3.939,0,0,0,.517-.844,4.8,4.8,0,0,0,.374-1.131,4.194,4.194,0,0,0,.073-.771,5.226,5.226,0,0,0-.049-.6,1.918,1.918,0,0,0-.265-.748,1.808,1.808,0,0,0-.434-.493,1.325,1.325,0,0,0-.747-.157h-6.07a.763.763,0,0,0-.277.036c-.057.025-.165.076-.325.157a3.98,3.98,0,0,0-1.012,1.06,8.122,8.122,0,0,0-.735,1.373,11.267,11.267,0,0,0-.494,1.445q-.193.725-.313,1.3Z" fill="#003a86"/>
      <path id="Path_68850" data-name="Path 68850" d="M227.6,330.273c0,.017-.036.2-.108.566s-.157.831-.253,1.41-.213,1.236-.349,1.975-.27,1.494-.4,2.264-.262,1.527-.4,2.265-.253,1.4-.35,1.976-.18,1.047-.252,1.409-.109.55-.109.566h3.734l-.771,4.433h-3.758q-.386,2.216-.831,4.769t-.867,5.024q-.422,2.469-.8,4.661t-.614,3.71h-6.408q.24-1.518.6-3.71t.795-4.661q.434-2.471.88-5.024t.831-4.769h-3.807l.8-4.433h3.783a3.839,3.839,0,0,0,.121-.566q.095-.543.253-1.409t.348-1.976q.193-1.107.4-2.265t.41-2.264q.2-1.109.348-1.975c.1-.579.181-1.048.253-1.41s.109-.549.109-.566Z" fill="#003a86"/>
      <path id="Path_68851" data-name="Path 68851" d="M270.624,342.607l-14,22.694H250.8l-2.626-8.938-5.613,8.938h-5.83l-6.07-22.694h6.865l3.156,16.478,5.975-7.949-2.41-8.529h4.867l5.636,16.478,8.987-16.478Z" fill="#003a86"/>
      <path id="Path_68852" data-name="Path 68852" d="M269.59,361.109a14.22,14.22,0,0,1-.338-3.228q0-.168.025-1.253a20.2,20.2,0,0,1,.361-2.963,27.567,27.567,0,0,1,.639-2.71,18.813,18.813,0,0,1,.987-2.674,13.8,13.8,0,0,1,1.422-2.422,9.6,9.6,0,0,1,1.939-1.974,6.046,6.046,0,0,1,1.735-.941,5.95,5.95,0,0,1,1.975-.337h10.022a5.82,5.82,0,0,1,2.59.723,4.92,4.92,0,0,1,1.7,1.614,5.069,5.069,0,0,1,.77,1.915,10.149,10.149,0,0,1,.145,1.506,8.819,8.819,0,0,1-.12,1.446,10.726,10.726,0,0,1-.783,2.409,8.571,8.571,0,0,1-1.554,2.264,6.94,6.94,0,0,1-2.313,1.723,6.842,6.842,0,0,1-2.964.662H275.8q0,.506.024,1.109a7.089,7.089,0,0,0,.145,1.179,3.671,3.671,0,0,0,.373,1.036,1.552,1.552,0,0,0,.711.675h11.78l-.7,4.433h-13.8a4.081,4.081,0,0,1-1.759-.362,4.605,4.605,0,0,1-1.349-.951,5.927,5.927,0,0,1-.987-1.349A8.551,8.551,0,0,1,269.59,361.109Zm15.057-8.7a2.286,2.286,0,0,0,.831-.192,4.165,4.165,0,0,0,.638-.434,3.979,3.979,0,0,0,.518-.844,4.751,4.751,0,0,0,.373-1.131,4.105,4.105,0,0,0,.072-.771,5.145,5.145,0,0,0-.047-.6,1.934,1.934,0,0,0-.265-.748,1.81,1.81,0,0,0-.435-.493,1.323,1.323,0,0,0-.746-.157h-6.071a.753.753,0,0,0-.276.036c-.057.025-.165.076-.326.157a4,4,0,0,0-1.012,1.06,8.124,8.124,0,0,0-.735,1.373,11.424,11.424,0,0,0-.494,1.445q-.192.725-.312,1.3Z" fill="#003a86"/>
      <path id="Path_68853" data-name="Path 68853" d="M294.165,361.109a14.22,14.22,0,0,1-.338-3.228q0-.168.025-1.253a20.348,20.348,0,0,1,.361-2.963,27.566,27.566,0,0,1,.639-2.71,19.07,19.07,0,0,1,.987-2.674,13.8,13.8,0,0,1,1.422-2.422,9.581,9.581,0,0,1,1.94-1.974,6.027,6.027,0,0,1,1.734-.941,5.954,5.954,0,0,1,1.975-.337h10.022a5.817,5.817,0,0,1,2.59.723,4.911,4.911,0,0,1,1.7,1.614,5.089,5.089,0,0,1,.771,1.915,10.261,10.261,0,0,1,.144,1.506,8.819,8.819,0,0,1-.12,1.446,10.726,10.726,0,0,1-.783,2.409,8.571,8.571,0,0,1-1.554,2.264,6.936,6.936,0,0,1-2.312,1.723,6.845,6.845,0,0,1-2.964.662H300.38q0,.506.025,1.109a6.983,6.983,0,0,0,.144,1.179,3.671,3.671,0,0,0,.373,1.036,1.552,1.552,0,0,0,.711.675h11.78l-.7,4.433h-13.8a4.074,4.074,0,0,1-1.758-.362,4.6,4.6,0,0,1-1.35-.951,5.927,5.927,0,0,1-.987-1.349A8.62,8.62,0,0,1,294.165,361.109Zm15.057-8.7a2.286,2.286,0,0,0,.831-.192,4.071,4.071,0,0,0,.638-.434,3.979,3.979,0,0,0,.518-.844,4.752,4.752,0,0,0,.373-1.131,4.107,4.107,0,0,0,.073-.771,5.182,5.182,0,0,0-.048-.6,1.9,1.9,0,0,0-.265-.748,1.808,1.808,0,0,0-.434-.493,1.329,1.329,0,0,0-.747-.157H304.09a.753.753,0,0,0-.276.036c-.057.025-.165.076-.325.157a3.983,3.983,0,0,0-1.013,1.06,8.116,8.116,0,0,0-.734,1.373,11.274,11.274,0,0,0-.495,1.445q-.192.725-.312,1.3Z" fill="#003a86"/>
      <path id="Path_68854" data-name="Path 68854" d="M334.879,365.3l1.927-11.347q.121-.771.229-1.674a14.509,14.509,0,0,0,.109-1.747q0-.094-.013-.6a6.342,6.342,0,0,0-.217-1.325,2.773,2.773,0,0,0-.71-1.325.648.648,0,0,0-.229-.169.792.792,0,0,0-.2-.024h-7.4L325.219,365.3h-6.433l3.952-22.694h15.8a4.092,4.092,0,0,1,1.807.386,5.144,5.144,0,0,1,1.4.987,6.09,6.09,0,0,1,1.289,2.157,9.152,9.152,0,0,1,.505,2.192q.086.975.085,1.626,0,.7-.1,1.734t-.314,2.265L341.287,365.3Z" fill="#003a86"/>
      <path id="Path_68855" data-name="Path 68855" d="M359.5,350.1l-2.625,15.2h-6.408l2.6-15.3-8.384-17.995h7.3l5.444,11.636L367,332.008h7.3Z" fill="#651f80"/>
      <path id="Path_68856" data-name="Path 68856" d="M400.7,332.008,394.869,365.3h-6.456l2.868-16.671H381.258L378.392,365.3h-6.457l5.83-33.293h6.456l-2.168,12.117h10.023l2.167-12.117Z" fill="#651f80"/>
    </g>
    <g id="Group_20369" data-name="Group 20369">
      <path id="Union_2" data-name="Union 2" d="M5045.748,3181.174l-.1,0a35.482,35.482,0,0,1-25.865-12.254h-78.463a93.772,93.772,0,0,1-18.79-1.865,84.713,84.713,0,0,1-21.277-6.044,91.955,91.955,0,0,1-28.423-19.041,88.145,88.145,0,0,1-19.041-28.017,84.79,84.79,0,0,1-6.936-34,88.825,88.825,0,0,1,7.48-36.448,89.794,89.794,0,0,1,20.808-29.377,96.925,96.925,0,0,1,31.416-19.584,104.767,104.767,0,0,1,34.312-6.971c2.976-.229,5.983-.366,9.034-.366h10.979l4.5,4.5v18.729l-4.5,4.5h-10.979a71.558,71.558,0,0,0-49.078,19.071,64.02,64.02,0,0,0-14.706,20.668,61.731,61.731,0,0,0-5.328,25.469,50.769,50.769,0,0,0,5.266,22.472,65.355,65.355,0,0,0,14.238,19.231,70.6,70.6,0,0,0,20.794,13.324,62.915,62.915,0,0,0,24.651,4.979h59.228l9.821,2.316a14.292,14.292,0,0,0,7.662-.305l16.228-5.218a.841.841,0,0,1,.747,1.485l-9.972,7.1a4.26,4.26,0,0,0-1.477,1.886,3.716,3.716,0,0,0-.286,1.171,3.9,3.9,0,0,0,1.481,3.3,10.261,10.261,0,0,0,12.261.316l5.789-4.121a5.019,5.019,0,0,1,1.345-.67h3.1a5.015,5.015,0,0,1,1.555.825l19.829,15.711a3.163,3.163,0,0,1,1.231,2.183,2.948,2.948,0,0,1-.546,1.953c-.052.074-.095.153-.154.223a3.133,3.133,0,0,1-4.236.326l-.691-.549h-4.709l2.514,1.992a2.987,2.987,0,0,1-.286,4.844,3.083,3.083,0,0,1-3.545-.257l-3.242-2.57-.03-.025-5.028-3.985h-3.048a1.5,1.5,0,0,0,.484,1.7l5.8,4.6a2.962,2.962,0,0,1,.993,3.157,2.918,2.918,0,0,1-1.151,1.613,2.988,2.988,0,0,1-3.575-.1l-4.819-3.82c-.044-.039-.091-.076-.136-.113l-2.835-2.241v0a1.463,1.463,0,0,0-2.1.3,1.517,1.517,0,0,0,.348,2.042l2.865,2.271a2.084,2.084,0,0,1,.583,2.322,2.011,2.011,0,0,1-1.926,1.376Zm179.366-202.218-.379-.017a95.287,95.287,0,0,1-35.071-9.57,91.48,91.48,0,0,1-26.937-20.383h0a90.83,90.83,0,0,1-17.377-28.589,95.353,95.353,0,0,1-6.148-34.117,80.807,80.807,0,0,1,7.577-34.417,92.647,92.647,0,0,1,20.362-28.285,95.849,95.849,0,0,1,29.875-19.107,93.87,93.87,0,0,1,26.727-6.529l4.921,4.481v19.192l-3.893,4.459a62.918,62.918,0,0,0-15.983,4.395,71.112,71.112,0,0,0-20.92,13.452A65.521,65.521,0,0,0,5173.5,2863.4a52.157,52.157,0,0,0-5.271,22.88,59.363,59.363,0,0,0,5.311,24.917,67.168,67.168,0,0,0,35.248,34.275,62.377,62.377,0,0,0,24.387,4.976h82.655V2839.719l4.5-4.5h20.548l4.5,4.5v60.529h37.593v-60.529l4.5-4.5h21.068l4.5,4.5v60.529h35.738v-60.529l4.5-4.5h21.068l4.5,4.5v65.028c0,7.123-2.338,13.019-6.947,17.524-4.587,4.476-10.85,6.743-18.622,6.743h-44.739a15.387,15.387,0,0,1-8.647-2.993q-.887-.6-1.671-1.244a18.166,18.166,0,0,1-4.064,2.725,14.789,14.789,0,0,1-6.685,1.512h-42.093v25.933a20.512,20.512,0,0,1-2.671,10.293,27.6,27.6,0,0,1-14.178,12.133,23.7,23.7,0,0,1-8.2,1.583Zm173.332-13.048c-.275-.238-.538-.48-.792-.726l-.04.037a17.273,17.273,0,0,1-23.1.166,14.393,14.393,0,0,1-5.331-11.078,16.729,16.729,0,0,1,28.549-12.1c.151.157.3.318.444.48.045-.045.092-.088.14-.133a16.581,16.581,0,0,1,23.344.17,16.826,16.826,0,0,1,4.642,12.1,14.891,14.891,0,0,1-4.759,10.912,17.276,17.276,0,0,1-23.1.169Zm42.324-2.1a16.414,16.414,0,0,1,0-22.539,15.422,15.422,0,0,1,11.983-5.455,14.9,14.9,0,0,1,11.464,5.455,16.415,16.415,0,0,1,0,22.539h0a14.887,14.887,0,0,1-11.464,5.455A15.425,15.425,0,0,1,5440.77,2963.812Zm-211.908-61.879a16.414,16.414,0,0,1,0-22.541,15.415,15.415,0,0,1,11.982-5.452,14.891,14.891,0,0,1,11.463,5.455,16.414,16.414,0,0,1,0,22.539,14.9,14.9,0,0,1-11.465,5.456A15.417,15.417,0,0,1,5228.861,2901.932Z" transform="translate(-4741 -2736)" fill="#003a86" stroke="rgba(0,0,0,0)" stroke-miterlimit="10" stroke-width="1"/>
      <path id="Union_1" data-name="Union 1" d="M5248.806,3052.368c-.274-.237-.54-.478-.792-.726l-.04.039a17.274,17.274,0,0,1-23.1.165,14.39,14.39,0,0,1-5.332-11.078,16.728,16.728,0,0,1,28.548-12.1c.152.158.3.317.444.479l.141-.133a16.581,16.581,0,0,1,23.344.169c3.081,3.205,3.642,7.274,3.642,12.1,0,4.138-.645,7.912-3.758,10.913a17.275,17.275,0,0,1-23.1.167Zm-184,0c-.274-.237-.538-.478-.792-.726l-.039.039a17.275,17.275,0,0,1-23.1.165,14.39,14.39,0,0,1-5.332-11.078,16.728,16.728,0,0,1,28.548-12.1c.152.158.3.317.444.479l.141-.133a16.581,16.581,0,0,1,23.344.169,16.836,16.836,0,0,1,4.642,12.1,14.9,14.9,0,0,1-4.759,10.913,17.275,17.275,0,0,1-23.1.167Zm-17.881-38.12a23.166,23.166,0,0,1-8.4-1.743,29.006,29.006,0,0,1-8-4.765,27.143,27.143,0,0,1-6.227-7.47,19.8,19.8,0,0,1-.968-1.916,75.8,75.8,0,0,1-18.607,10.129,85.759,85.759,0,0,1-24.072,5.476v.289h-45.5v-4.726a6.348,6.348,0,0,0-1.936-2.556L4916,2993.333c-4.2-4.684-8.58-4.046-11.583-2.622h0c-.177.1-.359.192-.528.312l-2.407,1.712-.837.6-2.544,1.812a7.323,7.323,0,0,1-8.748-.225,1,1,0,0,1,.04-1.6l.818-.583,13.337-9.49a8.641,8.641,0,0,1,8.316-.945l8.029,3.321v-.042h39l1.824-.288c.018.062.032.125.048.185h13.065a50.288,50.288,0,0,0,17.79-3.09,47.544,47.544,0,0,0,14.5-8.552,44.755,44.755,0,0,0,10.279-13.124,50.593,50.593,0,0,0,5.211-16.807v-7.215a50.649,50.649,0,0,0-5.212-16.807,44.751,44.751,0,0,0-10.277-13.121,47.642,47.642,0,0,0-14.5-8.55,50.337,50.337,0,0,0-17.79-3.093h-77.221a50.384,50.384,0,0,1-34.976-13.867,50.877,50.877,0,0,1-10.694-14.689,41.177,41.177,0,0,1-4.088-18.083,42.884,42.884,0,0,1,4.065-18.291,51.5,51.5,0,0,1,10.682-15.095,62.239,62.239,0,0,1,15.417-10.942,65.37,65.37,0,0,1,18.857-6.15l.738-.06h106.618l4.5,4.5v19.506l-4.5,4.5h-105.99a53.664,53.664,0,0,0-7.815,2.954,26.733,26.733,0,0,0-6.791,4.563,20.269,20.269,0,0,0-4.577,6.286,19.187,19.187,0,0,0-1.656,8.228,13.6,13.6,0,0,0,1.579,6.386,20.179,20.179,0,0,0,4.584,5.858,25.852,25.852,0,0,0,6.76,4.317,17.961,17.961,0,0,0,7.288,1.571h77.221a79.873,79.873,0,0,1,54.856,21.521,73.945,73.945,0,0,1,16.617,23.53,70.755,70.755,0,0,1,6.116,29.157v44.659h1.742l.521-.52h19.69v-89.417l4.5-4.5h21.069l4.5,4.5v93.917c0,7.122-2.336,13.018-6.946,17.525-4.588,4.476-10.852,6.743-18.622,6.743h-15.6l-.521.522Zm263-.521-4.5-4.5v-169.6l4.5-4.5h20.548l4.5,4.5v169.6l-4.5,4.5Zm-76.745,0a24.106,24.106,0,0,1-8.494-1.725,28.472,28.472,0,0,1-8.174-4.781,27.236,27.236,0,0,1-6.23-7.47,20.455,20.455,0,0,1-2.671-10.292v-.071a99.18,99.18,0,0,1-23.758,15.587,95.941,95.941,0,0,1-41.191,8.751H5115.47l-4.5-4.5v-19.768l4.5-4.5h27.194a71.154,71.154,0,0,0,24.835-4.4,63.671,63.671,0,0,0,20.659-12.385,61.78,61.78,0,0,0,14.179-19.041,55.053,55.053,0,0,0,5.275-24.18v-4.424a52.171,52.171,0,0,0-5.275-22.881,66.678,66.678,0,0,0-14.254-19.5,69.492,69.492,0,0,0-20.772-13.432,63.026,63.026,0,0,0-24.648-4.974h-6.846l-4.5-4.5v-18.73l4.5-4.5h6.846a94.691,94.691,0,0,1,36.313,7.106,97.032,97.032,0,0,1,30.267,19.636A94.53,94.53,0,0,1,5230,2888.244a88.6,88.6,0,0,1,7.683,36.709v60.005h23.25V2884.712l4.5-4.5H5286.5l4.5,4.5v104.746c0,7.122-2.338,13.018-6.946,17.525-4.59,4.476-10.854,6.743-18.623,6.743Z" transform="translate(-4598.36 -2582.331)" fill="#651f80" stroke="rgba(0,0,0,0)" stroke-miterlimit="10" stroke-width="1"/>
    </g>
  </g>
</svg>
