<svg width="639" height="198" viewBox="0 0 639 198" fill="none" xmlns="http://www.w3.org/2000/svg">
<path d="M378 0.899994H350.7C347.1 0.899994 345.2 3.09999 345.2 7.39999V145.4C345.2 149.7 347 151.9 350.7 151.9H378C380.5 151.9 382.1 150.9 382.9 148.9C383.2 148 383.4 146.8 383.4 145.5V7.5C383.4 3.1 381.6 0.899994 378 0.899994Z" fill="#00A79D"/>
<path d="M312 116.6H284.5C280.8 116.6 279 117.8 279 120.1V194.5C279 196.8 280.9 198 284.5 198H312C314.5 198 316.2 197.5 316.9 196.4C317.2 195.9 317.4 195.3 317.4 194.6V120.2C317.5 117.7 315.7 116.6 312 116.6Z" fill="#00A79D"/>
<path d="M429.8 117.4H310.3C306.6 117.4 304.7 119 304.7 122.3V146.9C304.7 150.2 306.6 151.8 310.3 151.8H429.9C431.4 151.8 432.5 151.5 433.4 151C434.3 150.5 434.9 149.7 435.2 148.7C435.3 148.2 435.4 147.6 435.4 146.9V122.3C435.4 119.1 433.6 117.4 429.8 117.4Z" fill="#00A79D"/>
<path d="M466.8 65.4L466.9 65.2C452.9 61.8 427.3 61.2 427.3 61.2H383.5L346.5 60.3L345.7 101.3L345.5 114.1L344.9 146.3C344.9 150 346.7 151.8 350.4 151.8H450.6C479.8 151.8 491.3 138.6 491.3 113.6V102C491.4 82.3 484.2 69.9 466.8 65.4ZM452.8 108.4C452.8 114.8 450.4 117.6 442.7 117.6H385.8C385.1 117.6 384.6 117.5 384.2 117.2C383.6 116.8 383.4 116.2 383.4 115.2V91.5H442.6C450.3 91.5 452.7 94.3 452.7 100.7V108.4H452.8Z" fill="#00A79D"/>
<path d="M613.5 65.4L613.6 65.2C599.6 61.8 574 61.2 574 61.2H524C521.6 61.2 519.7 63.1 519.7 65.5L519.3 87.1C519.3 89.5 521.2 91.5 523.6 91.5H589.5C590.1 91.5 590.7 91.5 591.3 91.6C597.6 92 599.6 94.8 599.6 100.7V108.4C599.6 114.8 597.2 117.6 589.5 117.6H444.2L443.7 146.4C443.7 150.1 445.5 151.9 449.2 151.9H597.4C626.6 151.9 638.1 138.7 638.1 113.7V102C638.1 82.3 631 69.9 613.5 65.4Z" fill="#00A79D"/>
<path d="M172.5 102V113.7C172.5 138.6 184 151.8 213.2 151.8H313.2C316.9 151.8 318.7 150 318.7 146.3L318.1 114.2L317.9 101.4L317.8 97.4C317.4 77.1 300.6 60.9 280.2 61.4H236.4C236.4 61.4 210.8 62.1 196.9 65.4L197 65.6C179.6 69.9 172.5 82.4 172.5 102ZM210.9 100.4C210.9 94 213.3 91.2 221 91.2H273.9C277.3 91.2 280.1 94 280.1 97.4V114.8C280.1 115.8 279.8 116.4 279.3 116.8C278.9 117.1 278.4 117.2 277.7 117.2H221C213.3 117.2 210.9 114.5 210.9 108.1V100.4Z" fill="#00A79D"/>
<path d="M122.3 65.5L122.4 65.3C108.5 61.9 82.9 61.3 82.9 61.3H39.1C18.8 60.8 1.9 77 1.5 97.3L1.39999 101.3L1.2 114.1L0.600006 146.2C0.600006 149.9 2.40001 151.7 6.10001 151.7H106.1C135.2 151.7 146.8 138.5 146.8 113.6V102C146.8 82.4 139.7 69.9 122.3 65.5ZM108.4 108.1C108.4 114.5 106 117.2 98.3 117.2H41.5C40.8 117.2 40.3 117.1 39.9 116.8C39.3 116.4 39.1 115.8 39.1 114.8V97.4C39.1 94 41.9 91.2 45.3 91.2H98.2C105.9 91.2 108.3 94 108.3 100.4V108.1H108.4Z" fill="#00A79D"/>
<path d="M553.6 5V37.9C553.6 41.4 557.5 43.4 560.4 41.5L584.5 25.2C587 23.5 587 19.8 584.5 18L560.4 1.4C557.5 -0.600003 553.6 1.5 553.6 5Z" fill="#2D3B8E"/>
<path d="M45.3 5V37.9C45.3 41.4 49.2 43.4 52.1 41.5L76.2 25.2C78.7 23.5 78.7 19.8 76.2 18L52.1 1.4C49.2 -0.600003 45.3 1.5 45.3 5Z" fill="#2D3B8E"/>
<path d="M84.3 5V37.9C84.3 41.4 88.2 43.4 91.1 41.5L115.2 25.2C117.7 23.5 117.7 19.8 115.2 18L91.1 1.4C88.2 -0.600003 84.3 1.5 84.3 5Z" fill="#2D3B8E"/>
</svg>
